<svg width="133" height="623" viewBox="0 0 133 623" fill="none" xmlns="http://www.w3.org/2000/svg">
<g opacity="0.2">
<path d="M131.586 17.6974C131.586 27.23 129.582 35.7163 125.573 43.1565C121.451 50.5939 115.839 56.465 108.739 60.7668C101.638 65.0685 93.5646 67.218 84.5172 67.218C75.3555 67.218 67.2818 65.0685 60.2959 60.7668C53.1954 56.465 47.6412 50.5939 43.6329 43.1566C39.6247 35.7163 37.6204 27.23 37.6204 17.6974C37.6204 8.04767 39.6247 -0.495912 43.6329 -7.93616C47.6412 -15.4936 53.1382 -21.3646 60.1241 -25.5492C67.11 -29.851 75.2411 -32.0005 84.5172 -32.0005C93.5646 -32.0005 101.638 -29.851 108.739 -25.5492C115.839 -21.3646 121.451 -15.4936 125.573 -7.93616C129.582 -0.495916 131.586 8.04766 131.586 17.6974ZM113.205 17.6974C113.205 12.3495 112.06 7.58178 109.769 3.39715C107.479 -0.787419 104.158 -4.04316 99.8061 -6.36695C95.4543 -8.80799 90.3579 -10.0284 84.5172 -10.0284C78.5622 -10.0284 73.4661 -8.80799 69.2287 -6.36695C64.8767 -4.04315 61.5555 -0.787417 59.2653 3.39715C56.9748 7.58178 55.8296 12.2894 55.8296 17.523C55.8296 22.8709 56.9748 27.6358 59.2653 31.8204C61.5555 35.8907 64.8767 39.1434 69.2287 41.5844C73.4661 44.0283 78.5623 45.2488 84.5172 45.2488C90.3579 45.2488 95.4543 44.0283 99.8061 41.5844C104.158 39.1434 107.479 35.8907 109.769 31.8204C112.06 27.6358 113.205 22.9282 113.205 17.6974Z" fill="#258C3A"/>
<path d="M130.383 181.634L38.6513 181.634L38.6513 159.839L99.1188 159.839L38.6513 108.398L38.6513 88.5182L130.383 88.5182L130.383 110.316L69.9157 110.316L130.383 161.583L130.383 181.634Z" fill="#258C3A"/>
<path d="M132.101 253.476C132.101 261.147 130.956 268.007 128.666 274.053C126.375 280.098 122.882 285.329 118.187 289.745C113.377 294.047 107.307 297.36 99.9779 299.686C92.6484 302.01 83.9449 303.173 73.8669 303.173C66.5374 303.173 59.838 302.533 53.7681 301.255C47.6984 299.975 42.2586 298.057 37.4489 295.502C32.5242 292.943 28.1725 289.745 24.3932 285.909C20.614 281.956 17.4646 277.366 14.9451 272.135C12.4256 266.904 10.4788 260.973 9.1045 254.347L-1.93745e-05 211.104L19.2397 207.965L27.1417 247.199C27.5998 249.408 28.2869 252.081 29.2031 255.219C30.0047 258.243 31.2646 261.382 32.9825 264.637C34.5857 267.776 36.9334 270.74 40.0256 273.53C43.0031 276.202 46.8968 278.412 51.7068 280.155C56.4022 281.782 62.3 282.596 69.4005 282.596C71.5764 282.596 73.2368 282.539 74.3821 282.422C75.413 282.19 76.5582 282.016 77.8178 281.899C78.9631 281.667 80.681 281.55 82.9712 281.55L74.5539 289.745C68.7132 287.421 63.7317 284.225 59.6087 280.155C55.3716 275.971 52.1648 271.146 49.9889 265.684C47.6984 260.101 46.5532 254.059 46.5532 247.547C46.5532 238.829 48.3282 231.098 51.8786 224.355C55.4287 217.612 60.4106 212.324 66.8238 208.488C73.2368 204.652 80.5091 202.732 88.6403 202.732C97.1148 202.732 104.616 204.827 111.144 209.011C117.672 213.196 122.825 219.124 126.604 226.796C130.269 234.353 132.101 243.246 132.101 253.476ZM114.751 251.732C114.751 246.501 113.663 241.908 111.487 237.958C109.197 233.887 106.105 230.749 102.211 228.539C98.3172 226.216 93.9654 225.052 89.1554 225.052C84.3457 225.052 80.1655 226.216 76.6154 228.539C72.9506 230.749 70.0303 233.887 67.8545 237.958C65.6786 241.908 64.5905 246.618 64.5905 252.081C64.5905 257.311 65.6211 262.019 67.6826 266.207C69.7441 270.274 72.607 273.472 76.2718 275.796C79.8219 278.006 83.9446 279.109 88.6403 279.109C93.45 279.109 97.8592 277.946 101.868 275.622C105.876 273.298 109.025 270.1 111.316 266.032C113.606 261.845 114.751 257.08 114.751 251.732Z" fill="#258C3A"/>
<path d="M130.383 345.491L111.831 345.491L107.88 346.712L75.413 346.712C69.1141 346.712 64.2469 348.629 60.8114 352.465C57.261 356.301 55.4859 362.115 55.4859 369.903C55.4859 375.134 56.2876 380.307 57.8911 385.422C59.4943 390.421 61.7274 394.664 64.5905 398.152L48.9583 406.696C45.1789 401.697 42.3733 395.769 40.5407 388.91C38.5939 381.935 37.6204 374.727 37.6204 367.286C37.6204 353.803 40.8272 343.399 47.2404 336.073C53.5391 328.635 63.3306 324.914 76.6154 324.914L130.383 324.914L130.383 345.491ZM131.586 374.786C131.586 381.76 130.441 387.864 128.15 393.095C125.745 398.326 122.481 402.395 118.359 405.301C114.121 408.091 109.369 409.486 104.101 409.486C98.9473 409.486 94.3091 408.265 90.1863 405.824C86.0633 403.266 82.7996 399.14 80.3945 393.444C77.9896 387.747 76.7872 380.191 76.7872 370.775L76.7872 343.747L91.0451 343.747L91.0451 369.205C91.0451 376.645 92.2476 381.644 94.6524 384.202C96.9429 386.759 99.8061 388.038 103.242 388.038C107.136 388.038 110.227 386.468 112.518 383.33C114.808 380.191 115.954 375.832 115.954 370.252C115.954 364.905 114.751 360.137 112.346 355.953C109.941 351.651 106.391 348.572 101.696 346.712L114.579 343.05C119.962 345.142 124.142 348.921 127.12 354.383C130.097 359.731 131.586 366.531 131.586 374.786Z" fill="#258C3A"/>
<path d="M130.383 521.7L38.6513 521.7L38.6513 499.904L75.9281 499.904L75.9281 452.997L38.6513 452.997L38.6513 431.2L130.383 431.2L130.383 452.997L94.1373 452.997L94.1373 499.904L130.383 499.904L130.383 521.7Z" fill="#258C3A"/>
<path d="M132.101 588.783C132.101 598.083 130.612 606.744 127.635 614.765C124.543 622.67 120.248 629.587 114.751 635.516C109.14 641.328 102.555 645.862 94.9961 649.117C87.4376 652.372 79.1921 654 70.2593 654C61.3266 654 53.0811 652.372 45.5226 649.117C37.9641 645.862 31.4365 641.27 25.9393 635.341C20.3277 629.413 16.0331 622.496 13.0555 614.591C9.96343 606.686 8.41736 598.025 8.41736 588.609C8.41736 578.611 10.1352 569.486 13.5709 561.232C16.892 552.978 21.8737 546.003 28.5159 540.307L42.0868 554.955C37.3914 559.372 33.8985 564.312 31.608 569.776C29.2031 575.24 28.0007 581.169 28.0007 587.563C28.0007 593.956 29.0313 599.827 31.0928 605.175C33.1541 610.406 36.0744 614.998 39.8538 618.95C43.6329 622.786 48.0992 625.809 53.2529 628.018C58.4063 630.11 64.0751 631.156 70.2593 631.156C76.4436 631.156 82.1124 630.11 87.2658 628.018C92.4194 625.809 96.8858 622.786 100.665 618.95C104.444 614.998 107.365 610.406 109.426 605.175C111.487 599.827 112.518 593.956 112.518 587.563C112.518 581.169 111.373 575.24 109.082 569.776C106.677 564.312 103.07 559.372 98.26 554.955L112.003 540.307C118.53 546.003 123.512 552.978 126.948 561.232C130.383 569.486 132.101 578.67 132.101 588.783Z" fill="#258C3A"/>
</g>
</svg>
