<svg width="65" height="26" viewBox="0 0 65 26" fill="none" xmlns="http://www.w3.org/2000/svg">
<path d="M7.4011 26C8.03661 23.6028 8.6701 21.2076 9.31166 18.7903C9.02921 18.9248 8.76492 19.0412 8.49659 19.1436C7.48785 19.5251 6.44683 19.7399 5.36344 19.7138C4.22356 19.6857 3.15429 19.4086 2.20406 18.7622C1.10453 18.0153 0.434726 16.9773 0.144208 15.6923C-0.0898198 14.6523 -0.0272777 13.6164 0.2471 12.5924C0.723226 10.8176 1.69565 9.3399 3.03325 8.09511C4.23163 6.97882 5.61159 6.17572 7.19733 5.73804C8.35133 5.42082 9.51946 5.33449 10.6977 5.58545C11.9404 5.85047 12.9855 6.44677 13.7703 7.45665C14.3776 8.23967 14.7004 9.13913 14.8032 10.1169C14.9001 11.0324 14.775 11.9238 14.5329 12.8052C14.2061 13.9998 13.8913 15.1984 13.5726 16.395C12.8846 18.989 12.2148 21.589 11.5026 24.177C11.2222 25.1949 10.4979 25.7912 9.45086 25.9819C9.43876 25.9839 9.42867 25.992 9.41656 25.998C8.74676 26 8.07292 26 7.4011 26ZM3.77366 13.5039C3.7777 13.5722 3.7777 13.6806 3.79182 13.787C3.91892 14.8451 4.46969 15.5779 5.48651 15.9413C6.0514 16.1421 6.63647 16.1541 7.21751 16.0316C8.61764 15.7345 9.68086 14.9535 10.4435 13.7609C10.8853 13.0682 11.1213 12.3093 11.0729 11.4781C11.0084 10.3879 10.3184 9.51457 9.27131 9.20538C8.69632 9.03473 8.11529 9.03473 7.53627 9.16924C6.26122 9.46639 5.2666 10.1811 4.52618 11.2452C4.06216 11.9098 3.79182 12.6466 3.77366 13.5039Z" fill="#1A1A1A"/>
<path d="M47.0847 0.00200784C46.766 1.20262 46.4492 2.40324 46.1305 3.60185C46.1022 3.62393 46.072 3.61389 46.0417 3.61389C45.4607 3.61389 44.8776 3.61791 44.2966 3.61389C43.8871 3.61189 43.5199 3.48941 43.2415 3.17621C42.9026 2.79675 42.8421 2.34501 42.9591 1.86919C43.1144 1.24479 43.2879 0.622393 43.4533 0C44.6638 0 45.8743 1.22485e-07 47.0847 0.00200784Z" fill="#1A1A1A"/>
<path d="M65 5.50132C64.9213 5.71012 64.8769 5.92896 64.8204 6.1458C64.6732 6.68989 64.5319 7.23599 64.3887 7.7821C64.3766 7.82827 64.3584 7.85437 64.302 7.85237C63.5333 7.85036 62.7626 7.85036 61.994 7.85036C61.9819 7.85036 61.9697 7.84634 61.9496 7.84434C62.1614 7.04325 62.3732 6.24819 62.5851 5.44309C63.3901 5.44309 64.195 5.44309 65 5.44309C65 5.46116 65 5.48124 65 5.50132Z" fill="#1A1A1A"/>
<path d="M20.8756 19.7181C20.1594 19.714 19.191 19.5253 18.2973 19.0394C16.8729 18.2665 16.0377 17.0659 15.7371 15.4898C15.5515 14.516 15.6241 13.5503 15.8803 12.5967C16.3444 10.87 17.2785 9.42244 18.5636 8.19171C19.6934 7.11155 20.9967 6.31448 22.4916 5.83664C23.3591 5.55958 24.2488 5.41502 25.1607 5.44514C26.343 5.48329 27.4445 5.78846 28.4109 6.49116C29.5023 7.28622 30.1378 8.37039 30.3759 9.68746C30.5958 10.9001 30.4364 12.0807 30.0208 13.2311C29.4176 14.9035 28.3907 16.2808 27.0349 17.4212C25.881 18.3909 24.5797 19.0876 23.113 19.4651C22.4654 19.6337 21.8036 19.716 20.8756 19.7181ZM19.4089 13.5021C19.4129 13.5704 19.4129 13.6788 19.4271 13.7852C19.5542 14.8433 20.1029 15.5781 21.1177 15.9395C21.6826 16.1423 22.2677 16.1543 22.8487 16.0319C24.2529 15.7347 25.3181 14.9517 26.0807 13.7551C26.5205 13.0645 26.7545 12.3075 26.7061 11.4804C26.6415 10.3902 25.9536 9.51681 24.9065 9.20561C24.3315 9.03495 23.7505 9.03495 23.1715 9.16947C21.8964 9.46661 20.9018 10.1814 20.1594 11.2434C19.6974 11.908 19.4271 12.6448 19.4089 13.5021Z" fill="#1A1A1A"/>
<path d="M43.1771 19.7174C43.167 19.6531 43.2134 19.631 43.2416 19.6029C44.9726 17.9004 46.7036 16.1978 48.4346 14.4973C49.0621 13.8809 49.6875 13.2645 50.3149 12.6502C50.3654 12.6 50.3775 12.5638 50.3432 12.4956C49.2134 10.1807 48.0856 7.86374 46.9558 5.54683C46.9417 5.51671 46.9296 5.48659 46.9175 5.46049C46.9336 5.4364 46.9518 5.44242 46.9679 5.44242C47.5933 5.44242 48.2187 5.4364 48.8442 5.44443C49.4272 5.45246 49.9719 5.60505 50.4541 5.94436C50.8011 6.1893 51.0695 6.5025 51.249 6.88598C51.705 7.86173 52.1892 8.82544 52.6572 9.79517C52.7157 9.91564 52.7742 10.0341 52.8509 10.1907C53.097 9.9337 53.325 9.68876 53.561 9.45386C54.3923 8.63069 55.2335 7.81756 56.0587 6.98636C56.7507 6.29169 57.5476 5.78775 58.5059 5.55084C58.7904 5.48057 59.0789 5.44042 59.3734 5.44042C59.9787 5.43841 60.5839 5.44042 61.1892 5.44042C61.2093 5.44042 61.2275 5.44042 61.2618 5.44042C61.0863 5.6171 60.9228 5.78173 60.7574 5.94436C58.5301 8.13278 56.3048 10.3212 54.0775 12.5096C54.0271 12.5598 54.019 12.598 54.0513 12.6642C55.175 14.9671 56.2968 17.2739 57.4205 19.5788C57.4407 19.619 57.475 19.6571 57.4427 19.7133C57.4225 19.7153 57.3983 19.7174 57.3761 19.7174C56.7709 19.7174 56.1656 19.7274 55.5604 19.7153C54.7836 19.6993 54.0977 19.4523 53.555 18.8761C53.3674 18.6773 53.2282 18.4445 53.1111 18.1995C52.6027 17.1434 52.0903 16.0914 51.5799 15.0373C51.5758 15.0293 51.5678 15.0213 51.5617 15.0112C51.5274 15.0133 51.5133 15.0414 51.4931 15.0614C50.4723 16.0653 49.4434 17.0611 48.4326 18.075C47.9746 18.5348 47.4844 18.9424 46.9013 19.2355C46.2557 19.5587 45.5738 19.7314 44.8475 19.7214C44.2907 19.7093 43.7359 19.7174 43.1771 19.7174Z" fill="#1A1A1A"/>
<path d="M29.6497 19.7138C29.7243 19.4307 29.795 19.1577 29.8676 18.8826C30.0633 18.1438 30.261 17.4049 30.4567 16.6661C30.6544 15.9212 30.8501 15.1744 31.0478 14.4295C31.3847 13.1546 31.7237 11.8797 32.0626 10.6048C32.2079 10.0567 32.343 9.50455 32.5024 8.96046C32.7526 8.10918 33.2368 7.39644 33.8884 6.79814C34.5824 6.15968 35.3854 5.722 36.3195 5.53729C36.5051 5.50115 36.6907 5.47705 36.8783 5.46902C38.1372 5.41682 39.3961 5.45898 40.6571 5.44694C40.6631 5.44694 40.6692 5.44895 40.6914 5.45497C40.3726 6.65358 40.0559 7.85219 39.7391 9.0488C39.7028 9.06887 39.6645 9.05884 39.6302 9.05884C39.0996 9.05884 38.567 9.05884 38.0364 9.05884C37.0236 9.06285 36.3094 9.55675 35.8111 10.402C35.6517 10.671 35.5972 10.9762 35.5185 11.2734C35.1857 12.5222 34.8528 13.771 34.5219 15.0198C34.1668 16.3629 33.8118 17.7061 33.4587 19.0493C33.4002 19.2721 33.3397 19.493 33.2791 19.7158C32.0707 19.7138 30.8683 19.7138 29.6497 19.7138Z" fill="#1A1A1A"/>
<path d="M42.0131 5.44486C42.6627 5.44486 43.3023 5.42679 43.9418 5.44887C44.7791 5.47698 45.3359 6.16362 45.2149 6.9888C45.1564 7.39636 45.0232 7.78787 44.9183 8.18339C44.0427 11.4941 43.1631 14.8049 42.2855 18.1156C42.1503 18.6216 42.0172 19.1295 41.882 19.6355C41.8759 19.6616 41.8658 19.6856 41.8598 19.7118C40.6493 19.7118 39.4428 19.7118 38.2303 19.7118C39.4912 14.9555 40.7502 10.2032 42.0131 5.44486Z" fill="#1A1A1A"/>
</svg>
