<svg width="19" height="19" viewBox="0 0 19 19" fill="none" xmlns="http://www.w3.org/2000/svg">
<path d="M4.75 0H0.365385C0.163588 0 0 0.163588 0 0.365385V4.75C0 4.9518 0.163588 5.11538 0.365385 5.11538H4.75C4.9518 5.11538 5.11538 4.9518 5.11538 4.75V0.365385C5.11538 0.163588 4.9518 0 4.75 0Z" fill="#1A1A1A"/>
<path d="M11.6923 0H7.30769C7.1059 0 6.94231 0.163588 6.94231 0.365385V4.75C6.94231 4.9518 7.1059 5.11538 7.30769 5.11538H11.6923C11.8941 5.11538 12.0577 4.9518 12.0577 4.75V0.365385C12.0577 0.163588 11.8941 0 11.6923 0Z" fill="#1A1A1A"/>
<path d="M18.6346 0H14.25C14.0482 0 13.8846 0.163588 13.8846 0.365385V4.75C13.8846 4.9518 14.0482 5.11538 14.25 5.11538H18.6346C18.8364 5.11538 19 4.9518 19 4.75V0.365385C19 0.163588 18.8364 0 18.6346 0Z" fill="#1A1A1A"/>
<path d="M4.75 6.94231H0.365385C0.163588 6.94231 0 7.1059 0 7.30769V11.6923C0 11.8941 0.163588 12.0577 0.365385 12.0577H4.75C4.9518 12.0577 5.11538 11.8941 5.11538 11.6923V7.30769C5.11538 7.1059 4.9518 6.94231 4.75 6.94231Z" fill="#1A1A1A"/>
<path d="M11.6923 6.94231H7.30769C7.1059 6.94231 6.94231 7.1059 6.94231 7.30769V11.6923C6.94231 11.8941 7.1059 12.0577 7.30769 12.0577H11.6923C11.8941 12.0577 12.0577 11.8941 12.0577 11.6923V7.30769C12.0577 7.1059 11.8941 6.94231 11.6923 6.94231Z" fill="#1A1A1A"/>
<path d="M18.6346 6.94231H14.25C14.0482 6.94231 13.8846 7.1059 13.8846 7.30769V11.6923C13.8846 11.8941 14.0482 12.0577 14.25 12.0577H18.6346C18.8364 12.0577 19 11.8941 19 11.6923V7.30769C19 7.1059 18.8364 6.94231 18.6346 6.94231Z" fill="#1A1A1A"/>
<path d="M4.75 13.8846H0.365385C0.163588 13.8846 0 14.0482 0 14.25V18.6346C0 18.8364 0.163588 19 0.365385 19H4.75C4.9518 19 5.11538 18.8364 5.11538 18.6346V14.25C5.11538 14.0482 4.9518 13.8846 4.75 13.8846Z" fill="#1A1A1A"/>
<path d="M11.6923 13.8846H7.30769C7.1059 13.8846 6.94231 14.0482 6.94231 14.25V18.6346C6.94231 18.8364 7.1059 19 7.30769 19H11.6923C11.8941 19 12.0577 18.8364 12.0577 18.6346V14.25C12.0577 14.0482 11.8941 13.8846 11.6923 13.8846Z" fill="#1A1A1A"/>
<path d="M18.6346 13.8846H14.25C14.0482 13.8846 13.8846 14.0482 13.8846 14.25V18.6346C13.8846 18.8364 14.0482 19 14.25 19H18.6346C18.8364 19 19 18.8364 19 18.6346V14.25C19 14.0482 18.8364 13.8846 18.6346 13.8846Z" fill="#1A1A1A"/>
</svg>
