<svg width="24" height="19" viewBox="0 0 24 19" fill="none" xmlns="http://www.w3.org/2000/svg">
<path d="M4.15642 0H0.402235C0.180087 0 0 0.172431 0 0.385135V3.97973C0 4.19243 0.180087 4.36486 0.402235 4.36486H4.15642C4.37857 4.36486 4.55866 4.19243 4.55866 3.97973V0.385135C4.55866 0.172431 4.37857 0 4.15642 0Z" fill="#C7C7C7"/>
<path d="M23.5978 0H8.04469C7.82255 0 7.64246 0.172431 7.64246 0.385135V3.97973C7.64246 4.19243 7.82255 4.36486 8.04469 4.36486H23.5978C23.8199 4.36486 24 4.19243 24 3.97973V0.385135C24 0.172431 23.8199 0 23.5978 0Z" fill="#C7C7C7"/>
<path d="M4.15642 7.31757H0.402235C0.180087 7.31757 0 7.49 0 7.7027V11.2973C0 11.51 0.180087 11.6824 0.402235 11.6824H4.15642C4.37857 11.6824 4.55866 11.51 4.55866 11.2973V7.7027C4.55866 7.49 4.37857 7.31757 4.15642 7.31757Z" fill="#C7C7C7"/>
<path d="M23.5978 7.31757H8.04469C7.82255 7.31757 7.64246 7.49 7.64246 7.7027V11.2973C7.64246 11.51 7.82255 11.6824 8.04469 11.6824H23.5978C23.8199 11.6824 24 11.51 24 11.2973V7.7027C24 7.49 23.8199 7.31757 23.5978 7.31757Z" fill="#C7C7C7"/>
<path d="M4.15642 14.6351H0.402235C0.180087 14.6351 0 14.8076 0 15.0203V18.6149C0 18.8276 0.180087 19 0.402235 19H4.15642C4.37857 19 4.55866 18.8276 4.55866 18.6149V15.0203C4.55866 14.8076 4.37857 14.6351 4.15642 14.6351Z" fill="#C7C7C7"/>
<path d="M23.5978 14.6351H8.04469C7.82255 14.6351 7.64246 14.8076 7.64246 15.0203V18.6149C7.64246 18.8276 7.82255 19 8.04469 19H23.5978C23.8199 19 24 18.8276 24 18.6149V15.0203C24 14.8076 23.8199 14.6351 23.5978 14.6351Z" fill="#C7C7C7"/>
</svg>
