<svg aria-hidden="true" xmlns="http://www.w3.org/2000/svg" xmlns:xlink="http://www.w3.org/1999/xlink"><symbol viewBox="0 0 28 28" fill="none" id="icon-arrow" xmlns="http://www.w3.org/2000/svg">
<path fill-rule="evenodd" clip-rule="evenodd" d="M24.1257 13.034L13.0459 1.95408L14 1.00001L26.7278 13.728L14 26.4558L13.0225 25.4783L24.1007 14.4L2.87063 14.4102L2.8368 13.0442L24.1257 13.034Z" fill="currentColor"/>
</symbol><symbol viewBox="0 0 18 18" fill="none" id="icon-tel" xmlns="http://www.w3.org/2000/svg">
<path d="M3.625 7.795C5.065 10.625 7.38 12.94 10.215 14.38L12.415 12.175C12.69 11.9 13.085 11.82 13.43 11.93C14.55 12.3 15.755 12.5 17 12.5C17.555 12.5 18 12.945 18 13.5V17C18 17.555 17.555 18 17 18C7.61 18 0 10.39 0 1C0 0.445 0.45 0 1 0H4.5C5.055 0 5.5 0.445 5.5 1C5.5 2.245 5.7 3.45 6.07 4.57C6.18 4.915 6.1 5.31 5.825 5.585L3.625 7.795Z" fill="currentColor"/>
</symbol></svg>