<svg width="23" height="23" viewBox="0 0 23 23" fill="none" xmlns="http://www.w3.org/2000/svg">
<path fill-rule="evenodd" clip-rule="evenodd" d="M11.5481 22.8024H11.5434C9.62678 22.8017 7.7435 22.3231 6.07083 21.4151L0 23L1.62466 17.0941C0.622489 15.3657 0.095154 13.4051 0.096013 11.3964C0.0985256 5.11246 5.23585 0 11.548 0C14.6116 0.00131607 17.4869 1.18823 19.649 3.34252C21.8111 5.4967 23.0012 8.36013 23 11.4054C22.9975 17.6879 17.8622 22.7998 11.5481 22.8024ZM6.70134 19.5571L6.35377 19.3518L2.75125 20.2922L3.71282 16.7966L3.4865 16.4382C2.5337 14.93 2.03047 13.1869 2.03121 11.3969C2.03329 6.17405 6.30326 1.9249 11.5536 1.9249C14.0959 1.92578 16.4858 2.91235 18.2829 4.70291C20.0799 6.49348 21.0691 8.87344 21.0681 11.4046C21.066 16.6279 16.7961 20.8775 11.5498 20.8775H11.546C9.83796 20.8768 8.16275 20.4201 6.70134 19.5571Z" fill="#2DA04B"/>
<path d="M17.3212 14.1156C17.2636 14.02 17.1289 13.9552 16.9293 13.8592C16.8809 13.8359 16.8287 13.8108 16.7728 13.7829C16.4867 13.6404 15.0799 12.9516 14.8175 12.8564C14.5553 12.7615 14.3644 12.714 14.1737 12.999C13.983 13.284 13.4346 13.9255 13.2677 14.1156C13.1007 14.3056 12.9338 14.3295 12.6478 14.1869C12.601 14.1636 12.5373 14.1361 12.4586 14.1021C12.0558 13.9282 11.2611 13.5851 10.3467 12.7734C9.496 12.0183 8.92172 11.0858 8.75481 10.8007C8.58789 10.5156 8.73701 10.3615 8.88026 10.2195C8.96598 10.1345 9.06441 10.0152 9.16285 9.89589C9.21226 9.836 9.26168 9.77611 9.30949 9.72055C9.43108 9.57927 9.48377 9.4722 9.55541 9.32664C9.56806 9.30094 9.58131 9.27403 9.59562 9.24553C9.691 9.05538 9.64332 8.88915 9.57177 8.74659C9.52391 8.65121 9.25185 7.99206 9.00563 7.39548C8.88387 7.10048 8.76843 6.82078 8.68954 6.63211C8.48445 6.14185 8.27657 6.14307 8.10982 6.14404C8.08769 6.14417 8.0663 6.14429 8.04573 6.14327C7.87901 6.13493 7.68804 6.13318 7.4973 6.13318C7.30655 6.13318 6.99653 6.20445 6.73425 6.48956C6.71744 6.50784 6.69866 6.52778 6.67824 6.54946C6.38022 6.86594 5.73277 7.5535 5.73277 8.86524C5.73277 10.2597 6.74743 11.607 6.89886 11.8081L6.90117 11.8111C6.91053 11.8236 6.92732 11.8475 6.95132 11.8818C7.29395 12.3708 9.1068 14.9584 11.7894 16.1111C12.472 16.4046 13.005 16.5798 13.4206 16.711C14.1061 16.9278 14.7299 16.8972 15.2229 16.8238C15.7727 16.7421 16.9158 16.135 17.1544 15.4698C17.3927 14.8045 17.3927 14.2343 17.3212 14.1156Z" fill="#2DA04B"/>
</svg>
