<svg width="170" height="42" viewBox="0 0 170 42" fill="none" xmlns="http://www.w3.org/2000/svg">
<path d="M157.684 31.8751C155.322 31.8751 153.219 31.3897 151.375 30.4187C149.532 29.42 148.077 28.0607 147.011 26.3407C145.945 24.6207 145.412 22.6649 145.412 20.4733C145.412 18.254 145.945 16.2982 147.011 14.606C148.077 12.886 149.532 11.5405 151.375 10.5696C153.219 9.59864 155.322 9.11311 157.684 9.11311C160.076 9.11311 162.193 9.59864 164.037 10.5696C165.909 11.5405 167.364 12.8721 168.401 14.5644C169.467 16.2566 170 18.2263 170 20.4733C170 22.6649 169.467 24.6207 168.401 26.3407C167.364 28.0607 165.909 29.42 164.037 30.4187C162.193 31.3897 160.076 31.8751 157.684 31.8751ZM157.684 27.4226C159.009 27.4226 160.191 27.1452 161.228 26.5904C162.265 26.0355 163.072 25.231 163.648 24.1769C164.253 23.1227 164.555 21.8881 164.555 20.4733C164.555 19.0308 164.253 17.7963 163.648 16.7698C163.072 15.7156 162.265 14.9111 161.228 14.3563C160.191 13.8015 159.024 13.5241 157.727 13.5241C156.402 13.5241 155.221 13.8015 154.184 14.3563C153.176 14.9111 152.37 15.7156 151.765 16.7698C151.159 17.7963 150.857 19.0308 150.857 20.4733C150.857 21.8881 151.159 23.1227 151.765 24.1769C152.37 25.231 153.176 26.0355 154.184 26.5904C155.221 27.1452 156.388 27.4226 157.684 27.4226Z" fill="#258C3A"/>
<path d="M117.058 31.5839V9.36283H122.459V24.0104L135.207 9.36283H140.134V31.5839H134.732V16.9363L122.027 31.5839H117.058Z" fill="#258C3A"/>
<path d="M99.2552 32C97.354 32 95.654 31.7226 94.1559 31.1677C92.6578 30.6129 91.3615 29.7668 90.2672 28.6294C89.2011 27.4643 88.3802 25.994 87.8036 24.2185C87.2277 22.443 86.9394 20.3347 86.9394 17.8934C86.9394 16.1179 87.0981 14.495 87.4147 13.0247C87.732 11.5544 88.2073 10.2367 88.8406 9.07156C89.4745 7.87862 90.2672 6.82446 91.2178 5.90897C92.1974 4.9935 93.335 4.2306 94.6312 3.62028C95.9275 3.00997 97.3972 2.53836 99.0392 2.20546L109.756 0L110.533 4.6606L100.811 6.57477C100.263 6.68574 99.6009 6.85216 98.8231 7.07412C98.0737 7.2683 97.296 7.57349 96.4892 7.98963C95.7114 8.378 94.9769 8.9467 94.2855 9.69573C93.6232 10.417 93.0757 11.3602 92.6436 12.5254C92.2406 13.6628 92.0387 15.0914 92.0387 16.8115C92.0387 17.3385 92.0529 17.7408 92.0819 18.0182C92.1393 18.2679 92.1825 18.5453 92.2115 18.8505C92.2689 19.1279 92.298 19.544 92.298 20.0988L90.2672 18.0598C90.843 16.645 91.635 15.4383 92.6436 14.4395C93.6806 13.4131 94.8763 12.6363 96.2299 12.1092C97.6133 11.5544 99.1107 11.277 100.724 11.277C102.885 11.277 104.801 11.707 106.472 12.567C108.143 13.427 109.453 14.6338 110.404 16.1873C111.354 17.7408 111.83 19.5024 111.83 21.4721C111.83 23.5249 111.311 25.342 110.274 26.9233C109.237 28.5046 107.768 29.7529 105.867 30.6684C103.994 31.5562 101.79 32 99.2552 32ZM99.6873 27.7972C100.984 27.7972 102.122 27.5336 103.101 27.0065C104.109 26.4517 104.887 25.7026 105.435 24.7594C106.011 23.8162 106.299 22.762 106.299 21.5969C106.299 20.4318 106.011 19.4192 105.435 18.5592C104.887 17.6714 104.109 16.964 103.101 16.4369C102.122 15.9099 100.954 15.6463 99.6009 15.6463C98.3046 15.6463 97.138 15.8959 96.1003 16.3953C95.0923 16.8947 94.2997 17.5882 93.7238 18.4759C93.1763 19.3359 92.9029 20.3346 92.9029 21.4721C92.9029 22.6372 93.1912 23.7052 93.767 24.6762C94.3429 25.6471 95.1355 26.41 96.1435 26.9649C97.1812 27.5197 98.362 27.7972 99.6873 27.7972Z" fill="#258C3A"/>
<path d="M76.4525 31.5839V27.0897L76.1501 26.1326V18.2679C76.1501 16.7421 75.6748 15.5631 74.7242 14.7308C73.7736 13.8708 72.3329 13.4408 70.403 13.4408C69.1066 13.4408 67.8246 13.635 66.5571 14.0234C65.3183 14.4118 64.2668 14.9527 63.4026 15.6463L61.2851 11.8596C62.5239 10.9441 63.9931 10.2644 65.6928 9.82052C67.4213 9.34891 69.2074 9.11311 71.0515 9.11311C74.3927 9.11311 76.971 9.88991 78.7865 11.4434C80.6296 12.9692 81.5518 15.3411 81.5518 18.5592V31.5839H76.4525ZM69.193 31.8751C67.4645 31.8751 65.9521 31.5977 64.6557 31.0429C63.3593 30.4603 62.351 29.6697 61.6308 28.671C60.9394 27.6446 60.5937 26.4933 60.5937 25.2172C60.5937 23.9688 60.8962 22.8453 61.5012 21.8466C62.135 20.8478 63.1577 20.0572 64.5693 19.4746C65.9809 18.8921 67.8534 18.6008 70.1869 18.6008H76.8846V22.0546H70.5758C68.7321 22.0546 67.4933 22.3459 66.8595 22.9284C66.2258 23.4833 65.9089 24.1769 65.9089 25.0091C65.9089 25.9523 66.2978 26.7013 67.0756 27.2562C67.8534 27.811 68.9337 28.0884 70.3165 28.0884C71.6415 28.0884 72.823 27.7972 73.86 27.2145C74.9261 26.632 75.689 25.772 76.1501 24.6346L77.0575 27.7555C76.539 29.0594 75.6025 30.0719 74.2489 30.7932C72.9236 31.5145 71.2385 31.8751 69.193 31.8751Z" fill="#258C3A"/>
<path d="M32.7855 31.5839V9.36283H38.187V18.3927H49.8112V9.36283H55.2127V31.5839H49.8112V22.8036H38.187V31.5839H32.7855Z" fill="#258C3A"/>
<path d="M16.1615 32C13.8568 32 11.7106 31.6393 9.7228 30.9181C7.76383 30.169 6.04975 29.1287 4.58052 27.7972C3.14011 26.4378 2.01658 24.8426 1.20995 23.0117C0.403317 21.1807 0 19.1834 0 17.0195C0 14.8556 0.403317 12.8583 1.20995 11.0273C2.01658 9.19635 3.15451 7.61511 4.62374 6.28348C6.09296 4.92414 7.80704 3.88383 9.766 3.16255C11.725 2.41352 13.8712 2.03901 16.2047 2.03901C18.6822 2.03901 20.9436 2.45513 22.989 3.28738C25.0344 4.09189 26.763 5.29865 28.1745 6.90763L24.5447 10.195C23.45 9.05764 22.2257 8.21151 20.8716 7.65666C19.5176 7.07411 18.0484 6.78283 16.4639 6.78283C14.8795 6.78283 13.4247 7.03249 12.0995 7.53187C10.8031 8.03118 9.66521 8.73859 8.68573 9.65411C7.73507 10.5696 6.98602 11.6515 6.43867 12.8999C5.92012 14.1482 5.66084 15.5214 5.66084 17.0195C5.66084 18.5176 5.92012 19.8908 6.43867 21.1391C6.98602 22.3875 7.73507 23.4694 8.68573 24.3849C9.66521 25.3004 10.8031 26.0078 12.0995 26.5071C13.4247 27.0065 14.8795 27.2562 16.4639 27.2562C18.0484 27.2562 19.5176 26.9787 20.8716 26.4239C22.2257 25.8413 23.45 24.9675 24.5447 23.8023L28.1745 27.1314C26.763 28.7126 25.0344 29.9194 22.989 30.7516C20.9436 31.5839 18.6678 32 16.1615 32Z" fill="#258C3A"/>
</svg>
