<svg width="20" height="21" viewBox="0 0 20 21" fill="none" xmlns="http://www.w3.org/2000/svg">
<path fill-rule="evenodd" clip-rule="evenodd" d="M5 3C5 1.61929 6.11929 0.5 7.5 0.5H17.5C18.8807 0.5 20 1.61929 20 3V13C20 14.3807 18.8807 15.5 17.5 15.5H7.5C6.11929 15.5 5 14.3807 5 13V3ZM7.5 1.75C6.80964 1.75 6.25 2.30964 6.25 3V13C6.25 13.6904 6.80964 14.25 7.5 14.25H17.5C18.1904 14.25 18.75 13.6904 18.75 13V3C18.75 2.30964 18.1904 1.75 17.5 1.75H7.5ZM2.5 6.75C1.80964 6.75 1.25 7.30964 1.25 8V18C1.25 18.6904 1.80964 19.25 2.5 19.25H12.5C13.1904 19.25 13.75 18.6904 13.75 18V16.75H15V18C15 19.3807 13.8807 20.5 12.5 20.5H2.5C1.11929 20.5 0 19.3807 0 18V8C0 6.61929 1.11929 5.5 2.5 5.5H3.75V6.75H2.5Z" fill="#1A1A1A"/>
</svg>
