<svg width="20" height="20" viewBox="0 0 20 20" fill="none" xmlns="http://www.w3.org/2000/svg">
<path fill-rule="evenodd" clip-rule="evenodd" d="M5 2.5C5 1.11929 6.11929 0 7.5 0H17.5C18.8807 0 20 1.11929 20 2.5V12.5C20 13.8807 18.8807 15 17.5 15H7.5C6.11929 15 5 13.8807 5 12.5V2.5ZM7.5 1.25C6.80964 1.25 6.25 1.80964 6.25 2.5V12.5C6.25 13.1904 6.80964 13.75 7.5 13.75H17.5C18.1904 13.75 18.75 13.1904 18.75 12.5V2.5C18.75 1.80964 18.1904 1.25 17.5 1.25H7.5ZM2.5 6.25C1.80964 6.25 1.25 6.80964 1.25 7.5V17.5C1.25 18.1904 1.80964 18.75 2.5 18.75H12.5C13.1904 18.75 13.75 18.1904 13.75 17.5V16.25H15V17.5C15 18.8807 13.8807 20 12.5 20H2.5C1.11929 20 0 18.8807 0 17.5V7.5C0 6.11929 1.11929 5 2.5 5H3.75V6.25H2.5Z" fill="#2DA04B"/>
</svg>
