<svg width="18" height="21" viewBox="0 0 18 21" fill="none" xmlns="http://www.w3.org/2000/svg">
<path d="M11.5308 1.65658C13.0489 0.147563 15.4663 0.103873 16.9302 1.559C18.3941 3.01413 18.3501 5.41705 16.832 6.92607L6.93639 16.7624C6.02553 17.6679 4.57509 17.6941 3.69675 16.821C2.81842 15.9479 2.84479 14.5062 3.75566 13.6007L11.4523 5.95024C11.7559 5.64843 12.2394 5.6397 12.5321 5.93072C12.8249 6.22175 12.8161 6.70233 12.5125 7.00414L4.8159 14.6546C4.51228 14.9565 4.50349 15.437 4.79627 15.7281C5.08905 16.0191 5.57253 16.0103 5.87615 15.7085L15.7718 5.87217C16.6826 4.96676 16.709 3.52501 15.8307 2.65193C14.9523 1.77885 13.5019 1.80507 12.591 2.71048L2.69541 12.5469C1.1773 14.0559 1.13334 16.4588 2.59724 17.9139C4.06113 19.369 6.47853 19.3254 7.99664 17.8163L15.6932 10.1658C15.9969 9.86402 16.4803 9.85528 16.7731 10.1463C17.0659 10.4373 17.0571 10.9179 16.7535 11.2197L9.05689 18.8702C6.93153 20.9829 3.54717 21.044 1.49772 19.0069C-0.551729 16.9697 -0.490196 13.6056 1.63516 11.493L11.5308 1.65658Z" fill="white"/>
</svg>
