<svg width="15" height="16" viewBox="0 0 15 16" fill="none" xmlns="http://www.w3.org/2000/svg">
<path d="M7.5 14.5625C3.87563 14.5625 0.9375 11.6244 0.9375 8C0.9375 4.37563 3.87563 1.4375 7.5 1.4375C11.1244 1.4375 14.0625 4.37563 14.0625 8C14.0625 11.6244 11.1244 14.5625 7.5 14.5625ZM7.5 15.5C11.6421 15.5 15 12.1421 15 8C15 3.85786 11.6421 0.5 7.5 0.5C3.35786 0.5 0 3.85786 0 8C0 12.1421 3.35786 15.5 7.5 15.5Z" fill="#868686"/>
<path d="M4.92667 5.92451C4.91955 6.05222 5.02491 6.15567 5.15281 6.15567H5.92577C6.05521 6.15567 6.15814 6.05012 6.17553 5.92185C6.25892 5.30673 6.6811 4.85837 7.43364 4.85837C8.07634 4.85837 8.66549 5.17972 8.66549 5.95334C8.66549 6.54843 8.31438 6.82217 7.76094 7.23874C7.13015 7.69696 6.63027 8.23254 6.66597 9.10138L6.66876 9.30463C6.67051 9.43281 6.77492 9.5358 6.90311 9.5358H7.66344C7.79288 9.5358 7.89782 9.43086 7.89782 9.30142V9.20255C7.89782 8.53009 8.15371 8.33371 8.84401 7.81003C9.4153 7.37561 10.0104 6.89359 10.0104 5.88193C10.0104 4.46561 8.81426 3.78125 7.50505 3.78125C6.31717 3.78125 5.01529 4.33495 4.92667 5.92451ZM6.38628 11.327C6.38628 11.8269 6.78499 12.1959 7.33248 12.1959C7.90377 12.1959 8.29653 11.8269 8.29653 11.327C8.29653 10.8093 7.90377 10.4463 7.33248 10.4463C6.78499 10.4463 6.38628 10.8093 6.38628 11.327Z" fill="#868686"/>
</svg>
