<svg width="22" height="22" viewBox="0 0 22 22" fill="none" xmlns="http://www.w3.org/2000/svg">
<path fill-rule="evenodd" clip-rule="evenodd" d="M2.59156 0.702729C3.61197 -0.317678 5.29581 -0.212846 6.18177 0.926247L8.64811 4.09726C9.10071 4.67918 9.26065 5.43687 9.08185 6.15206L8.32936 9.16203C8.24992 9.4798 8.34303 9.81595 8.57464 10.0476L11.9524 13.4254C12.1841 13.657 12.5202 13.7501 12.838 13.6706L15.8479 12.9182C16.5631 12.7394 17.3208 12.8993 17.9027 13.3519L21.0738 15.8182C22.2128 16.7042 22.3177 18.388 21.2973 19.4084L19.8756 20.8301C18.8585 21.8472 17.3372 22.2938 15.9194 21.7953C12.3991 20.5577 9.09478 18.5314 6.28167 15.7183C3.46857 12.9052 1.4423 9.60088 0.204652 6.08059C-0.293813 4.66279 0.152804 3.14149 1.16992 2.12437L2.59156 0.702729Z" fill="#2DA04B"/>
</svg>
