<svg width="70" height="70" viewBox="0 0 70 70" fill="none" xmlns="http://www.w3.org/2000/svg">
<path d="M61.8333 49.35V50.6C62.5237 50.6 63.0833 50.0404 63.0833 49.35H61.8333ZM61.8333 33.95H63.0833C63.0833 33.2596 62.5237 32.7 61.8333 32.7V33.95ZM20.5574 20.2985C19.9767 20.6718 19.8085 21.4452 20.1818 22.0259C20.5552 22.6067 21.3285 22.7748 21.9093 22.4015L20.5574 20.2985ZM40.8333 8.75L41.82 7.98257C41.4228 7.47189 40.7016 7.34868 40.1574 7.69853L40.8333 8.75ZM49.6466 22.1174C50.0704 22.6624 50.8558 22.7605 51.4007 22.3367C51.9457 21.9129 52.0438 21.1275 51.62 20.5826L49.6466 22.1174ZM61.8333 49.35V48.1H52.7333V49.35V50.6H61.8333V49.35ZM52.7333 33.95V35.2H61.8333V33.95V32.7H52.7333V33.95ZM61.8333 33.95H60.5833V49.35H61.8333H63.0833V33.95H61.8333ZM45.0333 41.65H46.2833C46.2833 38.0878 49.1711 35.2 52.7333 35.2V33.95V32.7C47.7904 32.7 43.7833 36.7071 43.7833 41.65H45.0333ZM52.7333 49.35V48.1C49.1711 48.1 46.2833 45.2122 46.2833 41.65H45.0333H43.7833C43.7833 46.593 47.7904 50.6 52.7333 50.6V49.35ZM21.2333 21.35L21.9093 22.4015L41.5093 9.80147L40.8333 8.75L40.1574 7.69853L20.5574 20.2985L21.2333 21.35ZM40.8333 8.75L39.8466 9.51743L49.6466 22.1174L50.6333 21.35L51.62 20.5826L41.82 7.98257L40.8333 8.75ZM8.63331 21.35V22.6H56.2333V21.35V20.1H8.63331V21.35ZM56.2333 63.35V62.1H8.63331V63.35V64.6H56.2333V63.35ZM5.83331 60.55H7.08331V24.15H5.83331H4.58331V60.55H5.83331ZM8.63331 63.35V62.1C7.77727 62.1 7.08331 61.4061 7.08331 60.55H5.83331H4.58331C4.58331 62.7868 6.39656 64.6 8.63331 64.6V63.35ZM59.0333 60.55H57.7833C57.7833 61.4061 57.0893 62.1 56.2333 62.1V63.35V64.6C58.4701 64.6 60.2833 62.7868 60.2833 60.55H59.0333ZM56.2333 21.35V22.6C57.0893 22.6 57.7833 23.294 57.7833 24.15H59.0333H60.2833C60.2833 21.9133 58.4701 20.1 56.2333 20.1V21.35ZM8.63331 21.35V20.1C6.39656 20.1 4.58331 21.9132 4.58331 24.15H5.83331H7.08331C7.08331 23.294 7.77727 22.6 8.63331 22.6V21.35ZM59.0333 51.45H57.7833V60.55H59.0333H60.2833V51.45H59.0333ZM59.0333 24.15H57.7833V31.5H59.0333H60.2833V24.15H59.0333Z" fill="#2DA04B"/>
</svg>
