<svg width="70" height="70" viewBox="0 0 70 70" fill="none" xmlns="http://www.w3.org/2000/svg">
<path d="M13.8334 49.2499H11.1667C8.22119 49.2499 5.83337 46.8621 5.83337 43.9166V19.9166C5.83337 16.9711 8.22119 14.5833 11.1667 14.5833H35.1667C38.1122 14.5833 40.5 16.9711 40.5 19.9166V43.9166C40.5 46.8621 38.1122 49.2499 35.1667 49.2499H32.5M44.5 49.2499H43.1667C41.6939 49.2499 40.5 48.056 40.5 46.5832V23.9166C40.5 22.4438 41.6939 21.2499 43.1667 21.2499H49.885C50.6951 21.2499 51.4613 21.6182 51.9673 22.2507L61.249 33.8528C61.6273 34.3256 61.8334 34.9131 61.8334 35.5187V46.5832C61.8334 48.056 60.6395 49.2499 59.1667 49.2499M29.8334 47.9166C29.8334 51.5985 26.8486 54.5832 23.1667 54.5832C19.4848 54.5832 16.5 51.5985 16.5 47.9166C16.5 44.2347 19.4848 41.2499 23.1667 41.2499C26.8486 41.2499 29.8334 44.2347 29.8334 47.9166ZM57.8334 47.9166C57.8334 51.5985 54.8486 54.5832 51.1667 54.5832C47.4848 54.5832 44.5 51.5985 44.5 47.9166C44.5 44.2347 47.4848 41.2499 51.1667 41.2499C54.8486 41.2499 57.8334 44.2347 57.8334 47.9166Z" stroke="#2DA04B" stroke-width="2.5" stroke-linecap="round"/>
</svg>
