<svg width="70" height="70" viewBox="0 0 70 70" fill="none" xmlns="http://www.w3.org/2000/svg">
<path d="M18.9583 58.3332H14.5833C11.3617 58.3332 8.75 55.7216 8.75 52.4999V11.6666C8.75 8.44492 11.3617 5.83325 14.5833 5.83325H55.4167C58.6383 5.83325 61.25 8.44492 61.25 11.6666V52.4999C61.25 55.7216 58.6383 58.3332 55.4167 58.3332H51.0417M35 55.4166C39.8325 55.4166 43.75 51.4991 43.75 46.6666C43.75 41.8341 39.8325 37.9166 35 37.9166C30.1675 37.9166 26.25 41.8341 26.25 46.6666C26.25 51.4991 30.1675 55.4166 35 55.4166ZM35 55.4166L35.0625 55.416L25.7503 64.7282L17.5007 56.4786L26.3073 47.672M35 55.4166L44.3124 64.7282L52.562 56.4786L43.7553 47.672M26.25 17.4999H43.75M20.4167 27.7083H49.5833" stroke="#2DA04B" stroke-width="2.5" stroke-linecap="round" stroke-linejoin="round"/>
</svg>
