<svg width="28" height="28" viewBox="0 0 28 28" fill="none" xmlns="http://www.w3.org/2000/svg">
<path d="M17.5 9.625V0.875H1.75V27.125H8.75V21.875H10.5V27.125H26.25V9.625H17.5ZM6.125 23.625H4.375V21.875H6.125V23.625ZM6.125 19.25H4.375V17.5H6.125V19.25ZM6.125 14.875H4.375V13.125H6.125V14.875ZM6.125 10.5H4.375V8.75H6.125V10.5ZM6.125 6.125H4.375V4.375H6.125V6.125ZM13.125 4.375H14.875V6.125H13.125V4.375ZM10.5 19.25H8.75V17.5H10.5V19.25ZM10.5 14.875H8.75V13.125H10.5V14.875ZM10.5 10.5H8.75V8.75H10.5V10.5ZM10.5 6.125H8.75V4.375H10.5V6.125ZM14.875 23.625H13.125V21.875H14.875V23.625ZM14.875 19.25H13.125V17.5H14.875V19.25ZM14.875 14.875H13.125V13.125H14.875V14.875ZM14.875 10.5H13.125V8.75H14.875V10.5ZM24.5 25.375H17.5V23.625H19.25V21.875H17.5V19.25H19.25V17.5H17.5V14.875H19.25V13.125H17.5V11.375H24.5V25.375Z" fill="#252525"/>
<path d="M22.75 21.875H21V23.625H22.75V21.875Z" fill="#252525"/>
<path d="M22.75 17.5H21V19.25H22.75V17.5Z" fill="#252525"/>
<path d="M22.75 13.125H21V14.875H22.75V13.125Z" fill="#252525"/>
</svg>
