<svg width="28" height="28" viewBox="0 0 28 28" fill="none" xmlns="http://www.w3.org/2000/svg">
<path d="M14.875 2.27992V10.2812C14.875 10.3393 14.898 10.3949 14.9391 10.4359C14.9801 10.477 15.0357 10.5 15.0938 10.5H23.0951C23.1167 10.5 23.1378 10.4936 23.1558 10.4816C23.1738 10.4697 23.1878 10.4526 23.1961 10.4327C23.2044 10.4127 23.2067 10.3908 23.2025 10.3695C23.1983 10.3483 23.188 10.3288 23.1727 10.3135L15.0615 2.20227C15.0462 2.18703 15.0267 2.17667 15.0055 2.17251C14.9842 2.16835 14.9623 2.17056 14.9423 2.17886C14.9224 2.18717 14.9053 2.20121 14.8934 2.21919C14.8814 2.23718 14.875 2.25831 14.875 2.27992Z" fill="#252525"/>
<path d="M13.5625 12.25C13.4465 12.25 13.3352 12.2039 13.2531 12.1219C13.1711 12.0398 13.125 11.9285 13.125 11.8125V1.75H5.03125C4.8572 1.75 4.69028 1.81914 4.56721 1.94221C4.44414 2.06528 4.375 2.2322 4.375 2.40625V25.5938C4.375 25.7678 4.44414 25.9347 4.56721 26.0578C4.69028 26.1809 4.8572 26.25 5.03125 26.25H22.9688C23.1428 26.25 23.3097 26.1809 23.4328 26.0578C23.5559 25.9347 23.625 25.7678 23.625 25.5938V12.25H13.5625ZM19.25 21H8.75V19.25H19.25V21ZM19.25 16.625H8.75V14.875H19.25V16.625Z" fill="#252525"/>
</svg>
