<svg width="114" height="45" viewBox="0 0 114 45" fill="none" xmlns="http://www.w3.org/2000/svg">
<path d="M12.8828 45C13.989 40.8509 15.0917 36.7054 16.2084 32.5216C15.7168 32.7544 15.2567 32.9559 14.7896 33.1332C13.0338 33.7934 11.2217 34.1652 9.33591 34.12C7.35177 34.0714 5.49054 33.5918 3.83651 32.4729C1.92261 31.1803 0.756709 29.3837 0.251017 27.1598C-0.156345 25.3598 -0.0474811 23.5668 0.430117 21.7945C1.25889 18.7227 2.95155 16.1652 5.27984 14.0108C7.36582 12.0787 9.76785 10.6888 12.5281 9.93122C14.5368 9.38219 16.5701 9.23276 18.621 9.66713C20.7842 10.1258 22.6033 11.1579 23.9694 12.9057C25.0264 14.261 25.5883 15.8177 25.7674 17.51C25.9359 19.0945 25.7182 20.6374 25.2968 22.1629C24.7279 24.2305 24.1801 26.305 23.6252 28.376C22.4277 32.8656 21.2618 37.3656 20.0222 41.8448C19.534 43.6065 18.2733 44.6386 16.4507 44.9687C16.4296 44.9722 16.4121 44.9861 16.391 44.9965C15.2251 45 14.0522 45 12.8828 45ZM6.56865 23.3722C6.57567 23.4903 6.57567 23.6779 6.60026 23.8621C6.8215 25.6934 7.7802 26.9617 9.55012 27.5907C10.5334 27.9382 11.5518 27.959 12.5632 27.7471C15.0004 27.2328 16.851 25.881 18.1785 23.8169C18.9476 22.6181 19.3584 21.3046 19.2742 19.866C19.1618 17.9791 17.9608 16.4675 16.1382 15.9324C15.1373 15.637 14.1259 15.637 13.1181 15.8698C10.8986 16.3841 9.16734 17.6212 7.87853 19.4629C7.07083 20.6131 6.60026 21.8884 6.56865 23.3722Z" fill="white"/>
<path d="M81.9584 0.00347511C81.4035 2.08146 80.8522 4.15945 80.2974 6.23396C80.2482 6.27218 80.1955 6.25481 80.1428 6.25481C79.1315 6.25481 78.1166 6.26176 77.1053 6.25481C76.3924 6.25133 75.7533 6.03936 75.2687 5.49728C74.6787 4.84053 74.5734 4.05868 74.777 3.23513C75.0474 2.15443 75.3494 1.07722 75.6374 0C77.7444 0 79.8514 2.12039e-07 81.9584 0.00347511Z" fill="white"/>
<path d="M113.143 9.52118C113.006 9.88257 112.929 10.2613 112.83 10.6366C112.574 11.5783 112.328 12.5235 112.079 13.4687C112.058 13.5486 112.026 13.5938 111.928 13.5903C110.59 13.5868 109.248 13.5868 107.911 13.5868C107.889 13.5868 107.868 13.5799 107.833 13.5764C108.202 12.1899 108.571 10.8138 108.939 9.42041C110.341 9.42041 111.742 9.42041 113.143 9.42041C113.143 9.45168 113.143 9.48643 113.143 9.52118Z" fill="white"/>
<path d="M36.3377 34.1271C35.0911 34.1202 33.4054 33.7935 31.8497 32.9526C29.3705 31.6148 27.9166 29.5368 27.3934 26.809C27.0703 25.1236 27.1967 23.4522 27.6427 21.8016C28.4504 18.8132 30.0763 16.3078 32.3133 14.1777C34.2799 12.3082 36.5484 10.9287 39.1506 10.1016C40.6607 9.62209 42.2093 9.3719 43.7966 9.42402C45.8545 9.49005 47.7719 10.0182 49.454 11.2344C51.3539 12.6105 52.4601 14.487 52.8745 16.7665C53.2572 18.8653 52.9798 20.9086 52.2564 22.8997C51.2064 25.7943 49.4189 28.1781 47.059 30.1518C45.0503 31.8302 42.7853 33.036 40.2322 33.6893C39.105 33.9812 37.9531 34.1237 36.3377 34.1271ZM33.7847 23.3688C33.7917 23.487 33.7917 23.6746 33.8163 23.8588C34.0376 25.6901 34.9927 26.9619 36.7591 27.5874C37.7424 27.9383 38.7608 27.9592 39.7722 27.7472C42.2164 27.2329 44.0706 25.8777 45.398 23.8067C46.1635 22.6113 46.5709 21.3013 46.4866 19.8696C46.3743 17.9827 45.1768 16.4711 43.3542 15.9325C42.3533 15.6372 41.3419 15.6372 40.3341 15.87C38.1147 16.3843 36.3834 17.6213 35.0911 19.4596C34.2869 20.6097 33.8163 21.885 33.7847 23.3688Z" fill="white"/>
<path d="M75.1565 34.1271C75.1389 34.0159 75.2197 33.9777 75.2689 33.9291C78.282 30.9823 81.295 28.0356 84.3081 25.0924C85.4003 24.0256 86.4889 22.9588 87.5811 21.8955C87.6689 21.8086 87.6899 21.746 87.6302 21.6279C85.6637 17.6213 83.7006 13.6113 81.734 9.60124C81.7094 9.54912 81.6884 9.49699 81.6673 9.45182C81.6954 9.41012 81.727 9.42055 81.7551 9.42055C82.8437 9.42055 83.9324 9.41012 85.021 9.42402C86.0359 9.43792 86.9841 9.70201 87.8234 10.2893C88.4274 10.7132 88.8945 11.2553 89.207 11.919C90.0007 13.6078 90.8435 15.2758 91.6582 16.9541C91.76 17.1626 91.8619 17.3677 91.9953 17.6387C92.4238 17.1939 92.8206 16.77 93.2315 16.3634C94.6783 14.9387 96.1427 13.5314 97.579 12.0927C98.7835 10.8904 100.171 10.0182 101.839 9.60819C102.334 9.48657 102.836 9.41707 103.349 9.41707C104.402 9.4136 105.456 9.41707 106.509 9.41707C106.545 9.41707 106.576 9.41707 106.636 9.41707C106.33 9.72286 106.046 10.0078 105.758 10.2893C101.881 14.0769 98.0075 17.8646 94.1305 21.6522C94.0427 21.7391 94.0286 21.8051 94.0848 21.9198C96.0409 25.9055 97.9934 29.8982 99.9494 33.8874C99.9846 33.9569 100.044 34.0229 99.9881 34.1202C99.953 34.1236 99.9108 34.1271 99.8722 34.1271C98.8187 34.1271 97.7651 34.1445 96.7116 34.1236C95.3596 34.0958 94.1656 33.6684 93.2209 32.6711C92.8943 32.3271 92.652 31.924 92.4483 31.5001C91.5634 29.6723 90.6714 27.8514 89.7829 26.0271C89.7759 26.0132 89.7619 25.9993 89.7513 25.9819C89.6916 25.9854 89.667 26.0341 89.6319 26.0688C87.855 27.8063 86.064 29.5298 84.3046 31.2847C83.5074 32.0804 82.6541 32.7858 81.6392 33.2931C80.5154 33.8526 79.3285 34.1514 78.0642 34.1341C77.095 34.1132 76.1293 34.1271 75.1565 34.1271Z" fill="white"/>
<path d="M51.6101 34.1199C51.74 33.6299 51.863 33.1573 51.9894 32.6813C52.33 31.4025 52.6742 30.1237 53.0148 28.845C53.359 27.5558 53.6996 26.2631 54.0437 24.9739C54.6302 22.7674 55.2202 20.5608 55.8101 18.3542C56.063 17.4056 56.2983 16.45 56.5757 15.5083C57.0112 14.0349 57.854 12.8013 58.9883 11.7658C60.1963 10.6608 61.594 9.90327 63.2199 9.58358C63.543 9.52103 63.8661 9.47933 64.1927 9.46543C66.384 9.37509 68.5753 9.44806 70.7702 9.42721C70.7807 9.42721 70.7912 9.43068 70.8299 9.44111C70.275 11.5156 69.7237 13.5901 69.1723 15.6612C69.1091 15.6959 69.0424 15.6786 68.9827 15.6786C68.0591 15.6786 67.132 15.6786 66.2084 15.6786C64.4455 15.6855 63.2024 16.5403 62.335 18.0033C62.0575 18.4689 61.9627 18.9971 61.8258 19.5114C61.2463 21.6728 60.6669 23.8342 60.091 25.9956C59.4729 28.3203 58.8548 30.645 58.2403 32.9697C58.1384 33.3554 58.0331 33.7376 57.9277 34.1234C55.8242 34.1199 53.7312 34.1199 51.6101 34.1199Z" fill="white"/>
<path d="M73.1302 9.42391C74.261 9.42391 75.3742 9.39264 76.4874 9.43086C77.9448 9.47951 78.9141 10.6679 78.7034 12.0961C78.6015 12.8015 78.3697 13.4791 78.1871 14.1637C76.663 19.8938 75.1319 25.6239 73.6043 31.354C73.369 32.2297 73.1372 33.1089 72.9019 33.9845C72.8914 34.0297 72.8738 34.0714 72.8633 34.1166C70.7562 34.1166 68.6562 34.1166 66.5457 34.1166C68.7405 25.8845 70.9318 17.6594 73.1302 9.42391Z" fill="white"/>
</svg>
