<svg width="28" height="28" viewBox="0 0 28 28" fill="none" xmlns="http://www.w3.org/2000/svg">
<path fill-rule="evenodd" clip-rule="evenodd" d="M4.375 2.40625V25.5938C4.375 25.7678 4.44414 25.9347 4.56721 26.0578C4.69028 26.1809 4.8572 26.25 5.03125 26.25H22.9688C23.1428 26.25 23.3097 26.1809 23.4328 26.0578C23.5559 25.9347 23.625 25.7678 23.625 25.5938V2.40625C23.625 2.2322 23.5559 2.06528 23.4328 1.94221C23.3097 1.81914 23.1428 1.75 22.9688 1.75H5.03125C4.8572 1.75 4.69028 1.81914 4.56721 1.94221C4.44414 2.06528 4.375 2.2322 4.375 2.40625ZM14.875 20.7083H8.75V18.9583H14.875V20.7083ZM19.25 16.3333H8.75V14.5833H19.25V16.3333ZM14 11.6667H8.75V6.125H14V11.6667ZM19.25 7.875H15.75V6.125H19.25V7.875ZM15.75 11.6667H19.25V9.91667H15.75V11.6667Z" fill="#252525"/>
</svg>
