<svg width="28" height="28" viewBox="0 0 28 28" fill="none" xmlns="http://www.w3.org/2000/svg">
<path d="M6.83333 12.3933C8.75333 16.1667 11.84 19.2533 15.62 21.1733L18.5533 18.2333C18.92 17.8667 19.4467 17.76 19.9067 17.9067C21.4 18.4 23.0067 18.6667 24.6667 18.6667C25.4067 18.6667 26 19.26 26 20V24.6667C26 25.4067 25.4067 26 24.6667 26C12.1467 26 2 15.8533 2 3.33333C2 2.59333 2.6 2 3.33333 2H8C8.74 2 9.33333 2.59333 9.33333 3.33333C9.33333 4.99333 9.6 6.6 10.0933 8.09333C10.24 8.55333 10.1333 9.08 9.76667 9.44667L6.83333 12.3933Z" fill="#252525"/>
</svg>
