<svg width="17" height="18" viewBox="0 0 17 18" fill="none" xmlns="http://www.w3.org/2000/svg">
<path d="M0 14.2091V13.5688C9.01192e-05 13.1664 0.326248 12.8402 0.728571 12.8402C1.13089 12.8402 1.45705 13.1664 1.45714 13.5688V14.2091C1.45714 15.2141 2.28345 16.0429 3.31936 16.0429H13.6806C14.7165 16.0429 15.5429 15.2141 15.5429 14.2091V13.5688C15.5429 13.1664 15.8691 12.8402 16.2714 12.8402C16.6738 12.8402 16.9999 13.1664 17 13.5688V14.2091C17 16.034 15.5061 17.5 13.6806 17.5H3.31936C1.49392 17.5 0 16.034 0 14.2091ZM7.77143 1.22857C7.77143 0.826193 8.09762 0.5 8.5 0.5C8.90238 0.5 9.22857 0.826193 9.22857 1.22857V11.1829L11.8734 8.56741C12.1595 8.28448 12.6207 8.28702 12.9037 8.5731C13.1866 8.85919 13.1841 9.3204 12.898 9.60335L9.01228 13.4464C8.72842 13.7271 8.27158 13.7271 7.98772 13.4464L4.10201 9.60335L4.05173 9.54833C3.81673 9.26346 3.83105 8.84132 4.09632 8.5731C4.36157 8.30492 4.78315 8.28631 5.07059 8.51808L5.12656 8.56741L7.77143 11.1829V1.22857Z" fill="#1A1A1A"/>
</svg>
