<svg width="18" height="20" viewBox="0 0 18 20" fill="none" xmlns="http://www.w3.org/2000/svg">
<path d="M11.5308 1.16098C13.0489 -0.348043 15.4663 -0.391732 16.9302 1.0634C18.3941 2.51852 18.3501 4.92144 16.832 6.43046L6.93639 16.2668C6.02553 17.1722 4.57509 17.1985 3.69675 16.3254C2.81842 15.4523 2.84479 14.0106 3.75566 13.1051L11.4523 5.45463C11.7559 5.15283 12.2394 5.14409 12.5321 5.43512C12.8249 5.72614 12.8161 6.20673 12.5125 6.50853L4.8159 14.159C4.51228 14.4608 4.50349 14.9414 4.79627 15.2325C5.08905 15.5235 5.57253 15.5147 5.87615 15.2129L15.7718 5.37657C16.6826 4.47115 16.709 3.0294 15.8307 2.15633C14.9523 1.28325 13.5019 1.30946 12.591 2.21488L2.69541 12.0512C1.1773 13.5603 1.13334 15.9632 2.59724 17.4183C4.06113 18.8734 6.47853 18.8298 7.99664 17.3207L15.6932 9.67022C15.9969 9.36842 16.4803 9.35968 16.7731 9.6507C17.0659 9.94173 17.0571 10.4223 16.7535 10.7241L9.05689 18.3746C6.93153 20.4873 3.54717 20.5484 1.49772 18.5112C-0.551729 16.4741 -0.490196 13.11 1.63516 10.9974L11.5308 1.16098Z" fill="#2DA04B"/>
</svg>
