<?xml version="1.0" encoding="utf-8"?><svg viewBox="0 0 24 19" xmlns="http://www.w3.org/2000/svg" xmlns:xlink="http://www.w3.org/1999/xlink"><style>:root>svg{display:none}:root>svg:target{display:block}</style><svg viewBox="0 0 19 19" id="show-block" xmlns="http://www.w3.org/2000/svg"><path d="M4.75 0H.365A.365.365 0 000 .365V4.75c0 .202.164.365.365.365H4.75a.365.365 0 00.365-.365V.365A.365.365 0 004.75 0zM11.692 0H7.308a.365.365 0 00-.366.365V4.75c0 .202.164.365.366.365h4.384a.365.365 0 00.366-.365V.365A.365.365 0 0011.692 0zM18.635 0H14.25a.365.365 0 00-.365.365V4.75c0 .202.163.365.365.365h4.385A.365.365 0 0019 4.75V.365A.365.365 0 0018.635 0zM4.75 6.942H.365A.365.365 0 000 7.308v4.384c0 .202.164.366.365.366H4.75a.365.365 0 00.365-.366V7.308a.365.365 0 00-.365-.366zM11.692 6.942H7.308a.365.365 0 00-.366.366v4.384c0 .202.164.366.366.366h4.384a.365.365 0 00.366-.366V7.308a.365.365 0 00-.366-.366zM18.635 6.942H14.25a.365.365 0 00-.365.366v4.384c0 .202.163.366.365.366h4.385a.365.365 0 00.365-.366V7.308a.365.365 0 00-.365-.366zM4.75 13.885H.365A.365.365 0 000 14.25v4.385c0 .201.164.365.365.365H4.75a.365.365 0 00.365-.365V14.25a.365.365 0 00-.365-.365zM11.692 13.885H7.308a.365.365 0 00-.366.365v4.385c0 .201.164.365.366.365h4.384a.365.365 0 00.366-.365V14.25a.365.365 0 00-.366-.365zM18.635 13.885H14.25a.365.365 0 00-.365.365v4.385c0 .201.163.365.365.365h4.385a.365.365 0 00.365-.365V14.25a.365.365 0 00-.365-.365z"/></svg><svg viewBox="0 0 24 19" id="show-list" xmlns="http://www.w3.org/2000/svg"><path d="M4.156 0H.402A.394.394 0 000 .385V3.98c0 .212.18.385.402.385h3.754a.394.394 0 00.403-.385V.385A.394.394 0 004.156 0zM23.598 0H8.045a.394.394 0 00-.403.385V3.98c0 .212.18.385.403.385h15.553A.394.394 0 0024 3.98V.385A.394.394 0 0023.598 0zM4.156 7.318H.402A.394.394 0 000 7.703v3.594c0 .213.18.385.402.385h3.754a.394.394 0 00.403-.385V7.703a.394.394 0 00-.403-.385zM23.598 7.318H8.045a.394.394 0 00-.403.385v3.594c0 .213.18.385.403.385h15.553a.394.394 0 00.402-.385V7.703a.394.394 0 00-.402-.385zM4.156 14.635H.402A.394.394 0 000 15.02v3.595c0 .213.18.385.402.385h3.754a.394.394 0 00.403-.385V15.02a.394.394 0 00-.403-.385zM23.598 14.635H8.045a.394.394 0 00-.403.385v3.595c0 .213.18.385.403.385h15.553a.394.394 0 00.402-.385V15.02a.394.394 0 00-.402-.385z"/></svg></svg>