<svg width="60" height="60" viewBox="0 0 60 60" fill="none" xmlns="http://www.w3.org/2000/svg">
<path d="M30 56.25C15.5025 56.25 3.75 44.4975 3.75 30C3.75 15.5025 15.5025 3.75 30 3.75C44.4975 3.75 56.25 15.5025 56.25 30C56.25 44.4975 44.4975 56.25 30 56.25ZM30 60C46.5685 60 60 46.5685 60 30C60 13.4315 46.5685 0 30 0C13.4315 0 0 13.4315 0 30C0 46.5685 13.4315 60 30 60Z" fill="#2DA04B"/>
<path d="M26.2558 41.25C26.2558 39.1789 27.9347 37.5 30.0058 37.5C32.0768 37.5 33.7558 39.1789 33.7558 41.25C33.7558 43.3211 32.0768 45 30.0058 45C27.9347 45 26.2558 43.3211 26.2558 41.25Z" fill="#2DA04B"/>
<path d="M26.6231 18.7314C26.4234 16.7336 27.9922 15 30 15C32.0078 15 33.5766 16.7336 33.3769 18.7314L32.0616 31.8843C31.9557 32.9434 31.0644 33.75 30 33.75C28.9356 33.75 28.0443 32.9434 27.9384 31.8843L26.6231 18.7314Z" fill="#2DA04B"/>
</svg>
