<svg width="20" height="20" viewBox="0 0 20 20" fill="none" xmlns="http://www.w3.org/2000/svg">
<path fill-rule="evenodd" clip-rule="evenodd" d="M10 1.25C7.92893 1.25 6.25 2.92893 6.25 5C6.25 7.07107 7.92893 8.75 10 8.75C12.0711 8.75 13.75 7.07107 13.75 5C13.75 2.92893 12.0711 1.25 10 1.25ZM5 5C5 2.23858 7.23858 0 10 0C12.7614 0 15 2.23858 15 5C15 7.54976 13.0914 9.65376 10.625 9.96132V16.875C10.625 17.2202 10.3452 17.5 10 17.5C9.65482 17.5 9.375 17.2202 9.375 16.875V9.96132C6.90856 9.65376 5 7.54976 5 5ZM8.1166 15.7178C8.17301 16.0583 7.94268 16.3801 7.60214 16.4365C6.71283 16.5838 6.00322 16.8048 5.53429 17.0519C5.29952 17.1756 5.15275 17.2915 5.07148 17.3836C5.03248 17.4278 5.01448 17.4598 5.00659 17.478C5.00274 17.4869 5.00122 17.4926 5.00061 17.4954C5.00003 17.4981 5 17.5 5 17.5C5 17.5 4.99994 17.5031 5.00191 17.5096C5.00403 17.5166 5.00927 17.5303 5.02192 17.5509C5.04845 17.5941 5.10255 17.6591 5.2039 17.739C5.41026 17.9016 5.7476 18.0754 6.22017 18.2329C7.15876 18.5458 8.49518 18.75 10 18.75C11.5048 18.75 12.8412 18.5458 13.7798 18.2329C14.2524 18.0754 14.5897 17.9016 14.7961 17.739C14.8975 17.6591 14.9515 17.5941 14.9781 17.5509C14.9907 17.5303 14.996 17.5166 14.9981 17.5096C15 17.5033 15 17.5001 15 17.5001C15 17.5001 15 17.4981 14.9994 17.4954C14.9988 17.4926 14.9973 17.4869 14.9934 17.478C14.9855 17.4598 14.9675 17.4278 14.9285 17.3836C14.8472 17.2915 14.7005 17.1756 14.4657 17.0519C13.9968 16.8048 13.2872 16.5838 12.3979 16.4365C12.0573 16.3801 11.827 16.0583 11.8834 15.7178C11.9398 15.3773 12.2616 15.1469 12.6021 15.2033C13.565 15.3628 14.4179 15.6138 15.0484 15.946C15.6261 16.2504 16.25 16.7518 16.25 17.5C16.25 18.0325 15.9257 18.4403 15.5698 18.7207C15.2069 19.0068 14.7205 19.237 14.1751 19.4188C13.0779 19.7845 11.6018 20 10 20C8.39822 20 6.92213 19.7845 5.82488 19.4188C5.27952 19.237 4.7931 19.0068 4.43018 18.7207C4.07431 18.4403 3.75 18.0325 3.75 17.5C3.75 16.7518 4.3739 16.2504 4.9516 15.946C5.58213 15.6138 6.43502 15.3628 7.39786 15.2033C7.7384 15.1469 8.06019 15.3773 8.1166 15.7178Z" fill="#2DA04B"/>
</svg>
