<svg width="20" height="20" viewBox="0 0 20 20" fill="none" xmlns="http://www.w3.org/2000/svg">
<path d="M10.2321 1.39102C10.0831 1.33141 9.91689 1.33141 9.76788 1.39102L2.30786 4.37502L5.3125 5.57688L13.0046 2.50002L10.2321 1.39102ZM14.6875 3.17317L6.99536 6.25002L10 7.45188L17.6921 4.37502L14.6875 3.17317ZM18.75 5.29817L10.625 8.54817V18.4519L18.75 15.2019V5.29817ZM9.375 18.4519V8.54817L1.25 5.29817V15.2019L9.375 18.4519ZM9.30364 0.23042C9.75066 0.0516115 10.2493 0.0516114 10.6964 0.23042L19.6071 3.79472C19.8444 3.88964 20 4.11946 20 4.37502V15.2019C20 15.713 19.6888 16.1726 19.2142 16.3625L10.2321 19.9553C10.0831 20.0149 9.91689 20.0149 9.76788 19.9553L0.785762 16.3625C0.311189 16.1726 0 15.713 0 15.2019V4.37502C0 4.11946 0.155594 3.88964 0.392881 3.79472L9.30364 0.23042Z" fill="#2DA04B"/>
</svg>
