<svg width="930" height="228" viewBox="0 0 930 228" fill="none" xmlns="http://www.w3.org/2000/svg">
<path d="M1090.8 227.11C1074.46 227.11 1059.91 223.651 1047.16 216.733C1034.41 209.618 1024.34 199.932 1016.97 187.678C1009.6 175.422 1005.91 161.488 1005.91 145.872C1005.91 130.06 1009.6 116.125 1016.97 104.068C1024.34 91.8125 1034.41 82.2263 1047.16 75.3081C1059.91 68.3903 1074.46 64.9309 1090.8 64.9309C1107.35 64.9309 1121.99 68.3903 1134.75 75.3081C1147.7 82.2263 1157.77 91.7139 1164.94 103.771C1172.32 115.828 1176 129.862 1176 145.872C1176 161.488 1172.32 175.422 1164.94 187.678C1157.77 199.932 1147.7 209.618 1134.75 216.733C1121.99 223.651 1107.35 227.11 1090.8 227.11ZM1090.8 195.386C1099.97 195.386 1108.14 193.41 1115.32 189.456C1122.49 185.503 1128.07 179.771 1132.06 172.26C1136.24 164.749 1138.33 155.953 1138.33 145.872C1138.33 135.594 1136.24 126.799 1132.06 119.485C1128.07 111.974 1122.49 106.242 1115.32 102.289C1108.14 98.3356 1100.07 96.3589 1091.1 96.3589C1081.93 96.3589 1073.77 98.3356 1066.59 102.289C1059.62 106.242 1054.04 111.974 1049.85 119.485C1045.66 126.799 1043.57 135.594 1043.57 145.872C1043.57 155.953 1045.66 164.749 1049.85 172.26C1054.04 179.771 1059.62 185.503 1066.59 189.456C1073.77 193.41 1081.84 195.386 1090.8 195.386Z" fill="url(#paint0_linear_116_4350)"/>
<path d="M809.769 225.035V66.7102H847.132V171.074L935.317 66.7102H969.396V225.035H932.029V120.671L844.143 225.035H809.769Z" fill="url(#paint1_linear_116_4350)"/>
<path d="M686.612 228C673.461 228 661.701 226.023 651.337 222.07C640.974 218.117 632.007 212.089 624.436 203.985C617.062 195.683 611.383 185.207 607.394 172.557C603.41 159.906 601.416 144.885 601.416 127.49C601.416 114.84 602.514 103.277 604.704 92.8009C606.899 82.325 610.187 72.9362 614.568 64.6348C618.953 56.1352 624.436 48.6243 631.012 42.1014C637.789 35.5787 645.658 30.1431 654.625 25.7945C663.592 21.446 673.76 18.0858 685.118 15.7139L759.25 0L764.63 33.2068L697.373 46.8453C693.585 47.6359 689.004 48.8217 683.623 50.4031C678.439 51.7866 673.059 53.9611 667.478 56.9261C662.098 59.6932 657.016 63.7452 652.234 69.0821C647.653 74.221 643.865 80.9415 640.876 89.2433C638.088 97.3473 636.691 107.527 636.691 119.782C636.691 123.537 636.789 126.403 636.99 128.38C637.387 130.159 637.686 132.135 637.887 134.31C638.284 136.286 638.485 139.251 638.485 143.204L624.436 128.676C628.42 118.595 633.898 109.998 640.876 102.881C648.049 95.5685 656.321 90.0338 665.685 86.2783C675.254 82.325 685.613 80.3484 696.775 80.3484C711.72 80.3484 724.975 83.412 736.534 89.5398C748.093 95.6671 757.158 104.266 763.734 115.334C770.309 126.403 773.602 138.955 773.602 152.988C773.602 167.615 770.01 180.562 762.837 191.828C755.663 203.095 745.501 211.989 732.349 218.512C719.393 224.838 704.15 228 686.612 228ZM689.601 198.055C698.568 198.055 706.443 196.177 713.215 192.421C720.192 188.468 725.572 183.131 729.36 176.411C733.344 169.69 735.338 162.179 735.338 153.878C735.338 145.576 733.344 138.361 729.36 132.234C725.572 125.909 720.192 120.869 713.215 117.113C706.443 113.358 698.368 111.48 689.004 111.48C680.037 111.48 671.966 113.259 664.788 116.817C657.815 120.375 652.332 125.316 648.348 131.641C644.561 137.768 642.669 144.884 642.669 152.988C642.669 161.29 644.664 168.9 648.647 175.818C652.631 182.736 658.114 188.171 665.087 192.125C672.265 196.078 680.434 198.055 689.601 198.055Z" fill="url(#paint2_linear_116_4350)"/>
<path d="M528.872 225.035V193.014L526.779 186.195V130.159C526.779 119.287 523.492 110.887 516.916 104.957C510.34 98.8295 500.373 95.7658 487.023 95.7658C478.055 95.7658 469.187 97.1494 460.418 99.917C451.849 102.684 444.575 106.538 438.597 111.48L423.949 84.4995C432.518 77.9765 442.682 73.134 454.44 69.9712C466.397 66.611 478.753 64.9309 491.509 64.9309C514.623 64.9309 532.459 70.4656 545.017 81.5346C557.767 92.4056 564.147 109.305 564.147 132.234V225.035H528.872ZM478.653 227.11C466.696 227.11 456.233 225.134 447.265 221.181C438.297 217.03 431.322 211.396 426.34 204.281C421.557 196.968 419.166 188.765 419.166 179.672C419.166 170.778 421.258 162.773 425.443 155.657C429.828 148.541 436.903 142.908 446.667 138.757C456.433 134.606 469.386 132.531 485.528 132.531H531.861V157.139H488.218C475.464 157.139 466.895 159.214 462.51 163.365C458.126 167.318 455.934 172.26 455.934 178.19C455.934 184.91 458.625 190.247 464.005 194.2C469.386 198.153 476.859 200.13 486.425 200.13C495.591 200.13 503.764 198.055 510.938 193.904C518.312 189.753 523.59 183.626 526.779 175.522L533.056 197.758C529.47 207.048 522.992 214.263 513.628 219.402C504.46 224.541 492.803 227.11 478.653 227.11Z" fill="url(#paint3_linear_116_4350)"/>
<path d="M226.798 225.035V66.7102H264.164V131.048H344.576V66.7102H381.942V225.035H344.576V162.476H264.164V225.035H226.798Z" fill="url(#paint4_linear_116_4350)"/>
<path d="M111.799 228C95.8567 228 81.0097 225.43 67.2589 220.291C53.7074 214.954 41.85 207.542 31.6864 198.055C21.7221 188.369 13.95 177.004 8.36998 163.958C2.79 150.913 0 136.681 0 121.264C0 105.846 2.79 91.6152 8.36998 78.5696C13.95 65.524 21.8218 54.2577 31.9854 44.7698C42.149 35.0845 54.0063 27.6723 67.5578 22.5332C81.1092 17.1964 95.9562 14.5279 112.098 14.5279C129.237 14.5279 144.881 17.4928 159.03 23.4226C173.179 29.1547 185.137 37.7529 194.901 49.2169L169.791 72.6396C162.219 64.5357 153.749 58.507 144.382 54.5537C135.016 50.4031 124.853 48.3277 113.892 48.3277C102.931 48.3277 92.8672 50.1065 83.6998 53.6646C74.7323 57.2222 66.8605 62.2625 60.0848 68.7855C53.5085 75.3081 48.3268 83.0168 44.5404 91.9117C40.9533 100.806 39.1597 110.59 39.1597 121.264C39.1597 131.938 40.9533 141.722 44.5404 150.616C48.3268 159.511 53.5085 167.22 60.0848 173.742C66.8605 180.265 74.7323 185.306 83.6998 188.863C92.8672 192.421 102.931 194.2 113.892 194.2C124.853 194.2 135.016 192.223 144.382 188.271C153.749 184.119 162.219 177.893 169.791 169.592L194.901 193.311C185.137 204.577 173.179 213.176 159.03 219.105C144.881 225.035 129.137 228 111.799 228Z" fill="url(#paint5_linear_116_4350)"/>
<defs>
<linearGradient id="paint0_linear_116_4350" x1="60.5" y1="-49" x2="985.5" y2="338.5" gradientUnits="userSpaceOnUse">
<stop stop-color="#258C3A" stop-opacity="0.05"/>
<stop offset="1" stop-color="#258C3A" stop-opacity="0.1"/>
</linearGradient>
<linearGradient id="paint1_linear_116_4350" x1="60.5" y1="-49" x2="985.5" y2="338.5" gradientUnits="userSpaceOnUse">
<stop stop-color="#258C3A" stop-opacity="0.05"/>
<stop offset="1" stop-color="#258C3A" stop-opacity="0.1"/>
</linearGradient>
<linearGradient id="paint2_linear_116_4350" x1="60.5" y1="-49" x2="985.5" y2="338.5" gradientUnits="userSpaceOnUse">
<stop stop-color="#258C3A" stop-opacity="0.05"/>
<stop offset="1" stop-color="#258C3A" stop-opacity="0.1"/>
</linearGradient>
<linearGradient id="paint3_linear_116_4350" x1="60.5" y1="-49" x2="985.5" y2="338.5" gradientUnits="userSpaceOnUse">
<stop stop-color="#258C3A" stop-opacity="0.05"/>
<stop offset="1" stop-color="#258C3A" stop-opacity="0.1"/>
</linearGradient>
<linearGradient id="paint4_linear_116_4350" x1="60.5" y1="-49" x2="985.5" y2="338.5" gradientUnits="userSpaceOnUse">
<stop stop-color="#258C3A" stop-opacity="0.05"/>
<stop offset="1" stop-color="#258C3A" stop-opacity="0.1"/>
</linearGradient>
<linearGradient id="paint5_linear_116_4350" x1="60.5" y1="-49" x2="985.5" y2="338.5" gradientUnits="userSpaceOnUse">
<stop stop-color="#258C3A" stop-opacity="0.05"/>
<stop offset="1" stop-color="#258C3A" stop-opacity="0.1"/>
</linearGradient>
</defs>
</svg>
